<svg width="25" height="24" viewBox="0 0 25 24" fill="none" xmlns="http://www.w3.org/2000/svg">
<path d="M22.5 12C22.5 6.47715 18.0228 2 12.5 2C6.97715 2 2.5 6.47715 2.5 12C2.5 17.5228 6.97715 22 12.5 22" stroke="#00A8AE" stroke-width="1.5" stroke-linecap="round"/>
<path d="M20.5 5.69899C19.5653 5.76636 18.3681 6.12824 17.5379 7.20277C16.0385 9.14361 14.539 9.30556 13.5394 8.65861C12.0399 7.6882 13.3 6.11636 11.5401 5.26215C10.3931 4.70542 10.2332 3.19045 10.8716 2" stroke="#00A8AE" stroke-width="1.5" stroke-linejoin="round"/>
<path d="M2.5 11C3.2625 11.6621 4.33046 12.2682 5.58874 12.2682C8.18843 12.2682 8.70837 12.7649 8.70837 14.7518C8.70837 16.7387 8.70837 16.7387 9.22831 18.2288C9.56651 19.1981 9.68472 20.1674 9.0106 21" stroke="#00A8AE" stroke-width="1.5" stroke-linejoin="round"/>
<path d="M20.3988 19.9288L22.5 22M21.6083 17.0459C21.6083 19.2805 19.7932 21.0919 17.5541 21.0919C15.3151 21.0919 13.5 19.2805 13.5 17.0459C13.5 14.8114 15.3151 13 17.5541 13C19.7932 13 21.6083 14.8114 21.6083 17.0459Z" stroke="#00A8AE" stroke-width="1.5" stroke-linecap="round"/>
</svg>
